# xmcd
#
# Track frame offsets:
#	150
#	25621
#	42948
#	56550
#	69868
#	83128
#	99795
#	117881
#	138620
#	155119
#	171173
#	194929
#	218411
#	237556
#	253486
#	271221
#	296882
#	320294
#
# Disc length: 4532
#
# Revision: 2
# Processed by: cddbd v1.5.1PL0 Copyright (c) Steve Scherf et al.
# Submitted via: EasyCDDAExtractor 5.0.6
# Normalized: r1:DSETVAR1
#
DISCID=0c11b212
DTITLE=Various Artist - Soul Groovin'   Various Artists
DYEAR=2002
DGENRE=Soul
TTITLE0=Eath, Wind and Fire - Let's Groove (Album Version)
TTITLE1=Luther Vandros - Never Too Much (Album Version)
TTITLE2=Billy Ocean - Love Really Hurts Without You
TTITLE3=O'Jays - Love Train (Album Version)
TTITLE4=Sly and the Family Stone - Dance To The Music (Album Version)
TTITLE5=Bill Withers - Use Me (Album Version)
TTITLE6=Heatwave - Gangsters Of The Groove (Album Version)
TTITLE7=Gladys Night and the Pips - Taste Of Bitter Love (Album Version)
TTITLE8=Emotions - Best Of My Love (Single Version)
TTITLE9=The Jacksons - Blame It On The Boogie (Album Version)
TTITLE10=Billy Paul - Am I Black Enough For You (Album Version)
TTITLE11=Bobby Womack - Standing In The safety Zone (Album Version)
TTITLE12=Archie Bell and The Drells - The Soul City Walk
TTITLE13=Harold Melvin and The Blue Notes - The Love I Lost (Album Version)
TTITLE14=Labelle - Lady Marmalade (Album Version)
TTITLE15=Tower of Power - So I Got To Groove
TTITLE16=Edgar Winter - Stickin' It (Album Version)
TTITLE17=Marvin Gaye - Joy (Album Version)
EXTD=
EXTT0=
EXTT1=
EXTT2=
EXTT3=
EXTT4=
EXTT5=
EXTT6=
EXTT7=
EXTT8=
EXTT9=
EXTT10=
EXTT11=
EXTT12=
EXTT13=
EXTT14=
EXTT15=
EXTT16=
EXTT17=
PLAYORDER=
